# xmcd CD database file
#
# Track frame offsets:
#	150
#	12267
#	28912
#	44004
#	58921
#	71763
#	86012
#	97439
#	112092
#	133397
#	147639
#	163511
#	174291
#	196564
#	217674
#	239878
#	263141
#	274060
#	291346
#	310596
#	328042
#
# Disc length: 4643 seconds
#
# Revision: 0
# Processed by: cddbd v1.5.2PL0 Copyright (c) Steve Scherf et al.
# Submitted via: CDex 1.70beta2
#
DISCID=4f122115
DTITLE=Wes Montgomery - Pretty Blue
DYEAR=1900
DGENRE=Jazz
TTITLE0=All the Way
TTITLE1=Pretty Blue
TTITLE2=God Bless the Child - (Take 4)
TTITLE3=God Bless the Child - (Take 2)
TTITLE4=In the Wee Small Hours of the Morning
TTITLE5=The Girl Next Door
TTITLE6=My Romance
TTITLE7=Tune-Up - (Take 5)
TTITLE8=Tune-Up - (Take 4)
TTITLE9=Prelude to a Kiss
TTITLE10=Somewhere
TTITLE11=Baubles, Bangles and Beads
TTITLE12='Round Midnight
TTITLE13=Whisper Not
TTITLE14=Too Late Now
TTITLE15=Canadian Sunset
TTITLE16=For Heaven's Sake
TTITLE17=Days of Wine and Roses
TTITLE18=Yesterday's Child
TTITLE19=Dreamsville
TTITLE20=For All We Know
EXTD=
EXTT0=
EXTT1=
EXTT2=
EXTT3=
EXTT4=
EXTT5=
EXTT6=
EXTT7=
EXTT8=
EXTT9=
EXTT10=
EXTT11=
EXTT12=
EXTT13=
EXTT14=
EXTT15=
EXTT16=
EXTT17=
EXTT18=
EXTT19=
EXTT20=
PLAYORDER=
